<svg xmlns="http://www.w3.org/2000/svg" viewBox="0 0 1200 630" width="1200" height="630" role="img">
    <title>Die Modelle laufen auf eigener Hardware im hauseigenen Bürokeller</title>
    <defs>
        <linearGradient id="accent" x1="0" y1="0" x2="1" y2="1">
            <stop offset="0" stop-color="#C026D3"/>
            <stop offset="1" stop-color="#2563EB"/>
        </linearGradient>
        <linearGradient id="wash" x1="0" y1="0" x2="0" y2="1">
            <stop offset="0" stop-color="#ffffff"/>
            <stop offset="1" stop-color="#f4eef8"/>
        </linearGradient>
        <filter id="glow" x="-100%" y="-100%" width="300%" height="300%">
            <feGaussianBlur stdDeviation="32"/>
        </filter>
        <pattern id="dots" width="18" height="18" patternUnits="userSpaceOnUse">
            <circle cx="2" cy="2" r="1.8" fill="#09090b"/>
        </pattern>

        <path id="w1" d="M0 0c3.5-6 7.5-6 11 0s7.5 6 11 0"/>
        <path id="w2" d="M0 0c3.5-6 7.5-6 11 0s7.5 6 11 0s7.5-6 11 0s7.5 6 11 0"/>
        <path id="w3" d="M0 0c3.5-6 7.5-6 11 0s7.5 6 11 0s7.5-6 11 0s7.5 6 11 0s7.5-6 11 0s7.5 6 11 0"/>
        <path id="w4" d="M0 0c3.5-6 7.5-6 11 0s7.5 6 11 0s7.5-6 11 0s7.5 6 11 0s7.5-6 11 0s7.5 6 11 0s7.5-6 11 0s7.5 6 11 0"/>
    </defs>

    <rect width="1200" height="630" fill="url(#wash)"/>
    <rect width="150" height="630" fill="url(#dots)" opacity="0.1"/>
    <rect x="1050" width="150" height="630" fill="url(#dots)" opacity="0.1"/>

    <ellipse cx="600" cy="315" rx="92" ry="116" fill="url(#accent)" filter="url(#glow)" opacity="0.55"/>

    <g transform="rotate(-4 270 315)">
    <rect x="104" y="168" width="250" height="92" rx="14" fill="#ffffff" stroke="#09090b" stroke-width="3" stroke-linejoin="round"/>
    <g stroke="#09090b" stroke-width="4" fill="none" stroke-linecap="round"><use href="#w3" x="130" y="218"/><use href="#w1" x="210" y="218"/></g>
    <rect x="150" y="288" width="250" height="92" rx="14" fill="#ffffff" stroke="#09090b" stroke-width="3" stroke-linejoin="round"/>
    <g stroke="#09090b" stroke-width="4" fill="none" stroke-linecap="round"><use href="#w2" x="176" y="338"/><use href="#w2" x="234" y="338"/></g>
    <rect x="104" y="408" width="250" height="92" rx="14" fill="#ffffff" stroke="#09090b" stroke-width="3" stroke-linejoin="round"/>
    <g stroke="#09090b" stroke-width="4" fill="none" stroke-linecap="round"><use href="#w3" x="130" y="458"/></g>
    </g>

    <path class="connector" d="M1042 196v-38h58" stroke="#09090b" stroke-width="3" fill="none" opacity="0.45" stroke-linejoin="round" stroke-linecap="round"/>
    <circle cx="1100" cy="158" r="10" fill="#ffffff" stroke="#09090b" stroke-width="3"/>
    <rect x="784" y="208" width="274" height="158" rx="12" fill="#09090b" opacity="0.3"/>
    <rect x="772" y="196" width="274" height="158" rx="12" fill="#ffffff" stroke="#09090b" stroke-width="3" stroke-linejoin="round"/>
    <path d="M772 338h274" data-detail="laptop hinge" stroke="#09090b" stroke-width="2.5" fill="none" opacity="0.45"/>
    <rect x="792" y="216" width="234" height="34" rx="8" fill="#ffffff" stroke="#09090b" stroke-width="3" stroke-linejoin="round"/>
    <circle cx="810" cy="233" r="8" fill="url(#accent)"/>
    <g stroke="#09090b" stroke-width="3.5" fill="none" stroke-linecap="round"><use href="#w2" x="830" y="238"/></g>
    <rect x="792" y="258" width="234" height="34" rx="8" fill="#ffffff" stroke="#09090b" stroke-width="3" stroke-linejoin="round"/>
    <circle cx="810" cy="275" r="8" fill="url(#accent)"/>
    <g stroke="#09090b" stroke-width="3.5" fill="none" stroke-linecap="round"><use href="#w3" x="830" y="280"/></g>
    <rect x="792" y="300" width="234" height="34" rx="8" fill="#ffffff" stroke="#09090b" stroke-width="3" stroke-linejoin="round"/>
    <circle cx="810" cy="317" r="8" fill="url(#accent)"/>
    <g stroke="#09090b" stroke-width="3.5" fill="none" stroke-linecap="round"><use href="#w2" x="830" y="322"/></g>
    <path d="M748 354h322l16 26a10 10 0 0 1-9 15H741a10 10 0 0 1-9-15Z" fill="#09090b" opacity="0.3" transform="translate(12 12)"/>
    <path d="M748 354h322l16 26a10 10 0 0 1-9 15H741a10 10 0 0 1-9-15Z" fill="#ffffff" stroke="#09090b" stroke-width="3" stroke-linejoin="round"/>
    <rect x="1108" y="234" width="60" height="124" rx="12" fill="#09090b" opacity="0.3"/>
    <rect x="1096" y="222" width="60" height="124" rx="12" fill="#ffffff" stroke="#09090b" stroke-width="3" stroke-linejoin="round"/>
    <path d="M1132 250l-22 36h18l-4 28 22-36h-18Z" fill="url(#accent)"/>
    <path d="M1096 320h60" data-detail="power unit base" stroke="#09090b" stroke-width="2.5" fill="none" opacity="0.45"/>

    <g stroke="#09090b" stroke-width="4" fill="none" stroke-linecap="round">
        <path class="arrow" d="M482 315h44"/>
        <path class="arrow" d="M674 315h44"/>
    </g>
    <g fill="#09090b">
        <path d="M534 315l-16-10v20Z"/>
        <path d="M726 315l-16-10v20Z"/>
    </g>

    <rect x="546" y="261" width="108" height="108" rx="22" fill="#ffffff" stroke="#09090b" stroke-width="3" stroke-linejoin="round"/>
    <g class="act" transform="translate(570 285)">
        <path d="M30 4 57 22v5H3v-5Z" fill="url(#accent)"/>
        <rect x="17" y="33" width="26" height="22" rx="6" fill="url(#accent)"/>
        <path d="M7 39h10M7 49h10M43 39h10M43 49h10" stroke="url(#accent)" stroke-width="5" fill="none" stroke-linecap="round"/>
    </g>
</svg>
