<svg xmlns="http://www.w3.org/2000/svg" viewBox="0 0 1200 630" width="1200" height="630" role="img">
    <title>Was zwischen Angebot und Projekt ungesagt bleibt, steht danach fest</title>
    <defs>
        <linearGradient id="accent" x1="0" y1="0" x2="1" y2="1">
            <stop offset="0" stop-color="#C026D3"/>
            <stop offset="1" stop-color="#2563EB"/>
        </linearGradient>
        <linearGradient id="wash" x1="0" y1="0" x2="0" y2="1">
            <stop offset="0" stop-color="#ffffff"/>
            <stop offset="1" stop-color="#f4eef8"/>
        </linearGradient>
        <filter id="glow" x="-100%" y="-100%" width="300%" height="300%">
            <feGaussianBlur stdDeviation="32"/>
        </filter>
        <pattern id="dots" width="18" height="18" patternUnits="userSpaceOnUse">
            <circle cx="2" cy="2" r="1.8" fill="#09090b"/>
        </pattern>

        <path id="w1" d="M0 0c3.5-6 7.5-6 11 0s7.5 6 11 0"/>
        <path id="w2" d="M0 0c3.5-6 7.5-6 11 0s7.5 6 11 0s7.5-6 11 0s7.5 6 11 0"/>
        <path id="w3" d="M0 0c3.5-6 7.5-6 11 0s7.5 6 11 0s7.5-6 11 0s7.5 6 11 0s7.5-6 11 0s7.5 6 11 0"/>
        <path id="w4" d="M0 0c3.5-6 7.5-6 11 0s7.5 6 11 0s7.5-6 11 0s7.5 6 11 0s7.5-6 11 0s7.5 6 11 0s7.5-6 11 0s7.5 6 11 0"/>
    </defs>

    <rect width="1200" height="630" fill="url(#wash)"/>
    <rect width="150" height="630" fill="url(#dots)" opacity="0.1"/>
    <rect x="1050" width="150" height="630" fill="url(#dots)" opacity="0.1"/>

    <ellipse cx="600" cy="315" rx="92" ry="116" fill="url(#accent)" filter="url(#glow)" opacity="0.55"/>

    <g transform="rotate(-4 270 315)">
    <rect x="100" y="190" width="190" height="136" rx="16" fill="#09090b" opacity="0.3"/>
    <rect x="88" y="178" width="190" height="136" rx="16" fill="#ffffff" stroke="#09090b" stroke-width="3" stroke-linejoin="round"/>
    <path d="M112 228h142" data-detail="blank rule" stroke="#09090b" stroke-width="2.5" fill="none" opacity="0.16"/>
    <path d="M112 262h96" data-detail="blank rule" stroke="#09090b" stroke-width="2.5" fill="none" opacity="0.16"/>
    <rect x="248" y="342" width="190" height="136" rx="16" fill="#09090b" opacity="0.3"/>
    <rect x="236" y="330" width="190" height="136" rx="16" fill="#ffffff" stroke="#09090b" stroke-width="3" stroke-linejoin="round"/>
    <path d="M260 380h142" data-detail="blank rule" stroke="#09090b" stroke-width="2.5" fill="none" opacity="0.16"/>
    <path d="M260 414h96" data-detail="blank rule" stroke="#09090b" stroke-width="2.5" fill="none" opacity="0.16"/>
    </g>

    <rect x="764" y="158" width="388" height="250" rx="20" fill="#09090b" opacity="0.3"/>
    <rect x="752" y="146" width="388" height="250" rx="20" fill="#ffffff" stroke="#09090b" stroke-width="3" stroke-linejoin="round"/>
    <rect x="776" y="176" width="52" height="24" rx="12" fill="#500472" opacity="0.18"/>
    <g stroke="#09090b" stroke-width="4" fill="none" stroke-linecap="round"><use href="#w3" x="844" y="194"/><use href="#w1" x="924" y="194"/></g>
    <path d="M776 220h340" data-detail="section divider" stroke="#09090b" stroke-width="2" fill="none" opacity="0.12"/>
    <rect x="776" y="238" width="52" height="24" rx="12" fill="#500472" opacity="0.18"/>
    <g stroke="#09090b" stroke-width="4" fill="none" stroke-linecap="round"><use href="#w2" x="844" y="256"/><use href="#w2" x="902" y="256"/></g>
    <path d="M776 282h340" data-detail="section divider" stroke="#09090b" stroke-width="2" fill="none" opacity="0.12"/>
    <rect x="776" y="300" width="52" height="24" rx="12" fill="#500472" opacity="0.18"/>
    <g stroke="#09090b" stroke-width="4" fill="none" stroke-linecap="round"><use href="#w3" x="844" y="318"/></g>
    <path d="M776 344h340" data-detail="section divider" stroke="#09090b" stroke-width="2" fill="none" opacity="0.12"/>
    <rect x="776" y="362" width="52" height="24" rx="12" fill="#500472" opacity="0.18"/>
    <g stroke="#09090b" stroke-width="4" fill="none" stroke-linecap="round"><use href="#w2" x="844" y="380"/><use href="#w1" x="902" y="380"/></g>
    <rect x="764" y="432" width="388" height="66" rx="18" fill="#09090b" opacity="0.3"/>
    <rect x="752" y="420" width="388" height="66" rx="18" fill="#ffffff" stroke="#09090b" stroke-width="3" stroke-linejoin="round"/>
    <path d="M784 462c10-16 18-26 26-26 8 0 4 26 12 26 6 0 10-8 14-14M778 474h108" data-detail="signature" stroke="url(#accent)" stroke-width="5" fill="none" stroke-linecap="round"/>
    <circle cx="1098" cy="452" r="16" fill="url(#accent)"/><path d="M1090 452l6 7 12-14" stroke="#ffffff" stroke-width="4" fill="none" stroke-linecap="round" stroke-linejoin="round"/>

    <g stroke="#09090b" stroke-width="4" fill="none" stroke-linecap="round">
        <path class="arrow" d="M482 315h44"/>
        <path class="arrow" d="M674 315h44"/>
    </g>
    <g fill="#09090b">
        <path d="M534 315l-16-10v20Z"/>
        <path d="M726 315l-16-10v20Z"/>
    </g>

    <rect x="546" y="261" width="108" height="108" rx="22" fill="#ffffff" stroke="#09090b" stroke-width="3" stroke-linejoin="round"/>
    <g class="act" transform="translate(570 285)">
        <path d="M6 42c8-12 14-24 20-24 8 0 2 24 10 24 6 0 10-8 14-16M4 54h52" stroke="url(#accent)" stroke-width="6" fill="none" stroke-linecap="round"/>
    </g>
</svg>
