<svg xmlns="http://www.w3.org/2000/svg" viewBox="0 0 1200 630" width="1200" height="630" role="img">
    <title>Hinter dem Namen auf der Website werden Rechtsform, Registereintrag und Zeichnungsberechtigte sichtbar</title>
    <defs>
        <linearGradient id="accent" x1="0" y1="0" x2="1" y2="1">
            <stop offset="0" stop-color="#C026D3"/>
            <stop offset="1" stop-color="#2563EB"/>
        </linearGradient>
        <linearGradient id="wash" x1="0" y1="0" x2="0" y2="1">
            <stop offset="0" stop-color="#ffffff"/>
            <stop offset="1" stop-color="#f4eef8"/>
        </linearGradient>
        <filter id="glow" x="-100%" y="-100%" width="300%" height="300%">
            <feGaussianBlur stdDeviation="32"/>
        </filter>
        <pattern id="dots" width="18" height="18" patternUnits="userSpaceOnUse">
            <circle cx="2" cy="2" r="1.8" fill="#09090b"/>
        </pattern>

        <path id="w1" d="M0 0c3.5-6 7.5-6 11 0s7.5 6 11 0"/>
        <path id="w2" d="M0 0c3.5-6 7.5-6 11 0s7.5 6 11 0s7.5-6 11 0s7.5 6 11 0"/>
        <path id="w3" d="M0 0c3.5-6 7.5-6 11 0s7.5 6 11 0s7.5-6 11 0s7.5 6 11 0s7.5-6 11 0s7.5 6 11 0"/>
        <path id="w4" d="M0 0c3.5-6 7.5-6 11 0s7.5 6 11 0s7.5-6 11 0s7.5 6 11 0s7.5-6 11 0s7.5 6 11 0s7.5-6 11 0s7.5 6 11 0"/>
    </defs>

    <rect width="1200" height="630" fill="url(#wash)"/>
    <rect width="150" height="630" fill="url(#dots)" opacity="0.1"/>
    <rect x="1050" width="150" height="630" fill="url(#dots)" opacity="0.1"/>

    <ellipse cx="600" cy="315" rx="92" ry="116" fill="url(#accent)" filter="url(#glow)" opacity="0.55"/>

    <g transform="rotate(-4 270 315)">
    <rect x="124" y="214" width="296" height="216" rx="16" fill="#09090b" opacity="0.3"/>
    <rect x="112" y="202" width="296" height="216" rx="16" fill="#ffffff" stroke="#09090b" stroke-width="3" stroke-linejoin="round"/>
    <path d="M112 256h296" data-detail="browser chrome rule" stroke="#09090b" stroke-width="2.5" fill="none" opacity="0.5"/>
    <circle cx="140" cy="229" r="9" fill="#09090b" opacity="0.25"/>
    <circle cx="166" cy="229" r="9" fill="#09090b" opacity="0.25"/>
    <circle cx="192" cy="229" r="9" fill="#09090b" opacity="0.25"/>
    <rect x="220" y="216" width="168" height="26" rx="13" fill="#09090b" opacity="0.08"/>
    <g stroke="#09090b" stroke-width="4.5" fill="none" stroke-linecap="round"><use href="#w3" x="140" y="306"/><use href="#w2" x="220" y="306"/></g>
    <path d="M140 348h240" data-detail="empty body rule" stroke="#09090b" stroke-width="2.5" fill="none" opacity="0.12"/>
    </g>

    <rect x="764" y="160" width="388" height="254" rx="20" fill="#09090b" opacity="0.3"/>
    <rect x="752" y="148" width="388" height="254" rx="20" fill="#ffffff" stroke="#09090b" stroke-width="3" stroke-linejoin="round"/>
    <path d="M752 206h388" data-detail="panel header rule" stroke="#09090b" stroke-width="2.5" fill="none" opacity="0.5"/>
    <rect x="776" y="164" width="30" height="30" rx="8" fill="url(#accent)"/>
    <g stroke="#09090b" stroke-width="3.5" fill="none" stroke-linecap="round" opacity="0.45"><use href="#w2" x="822" y="186"/></g>
    <rect x="776" y="232" width="96" height="24" rx="12" fill="#500472" opacity="0.18"/>
    <g stroke="#09090b" stroke-width="4" fill="none" stroke-linecap="round"><use href="#w3" x="892" y="250"/></g>
    <rect x="776" y="282" width="96" height="24" rx="12" fill="#500472" opacity="0.18"/>
    <g stroke="#09090b" stroke-width="4" fill="none" stroke-linecap="round"><use href="#w2" x="892" y="300"/><use href="#w1" x="950" y="300"/></g>
    <rect x="776" y="332" width="96" height="24" rx="12" fill="#500472" opacity="0.18"/>
    <g stroke="#09090b" stroke-width="4" fill="none" stroke-linecap="round"><use href="#w2" x="892" y="350"/></g>
    <rect x="908" y="368" width="244" height="118" rx="16" fill="#09090b" opacity="0.3"/>
    <rect x="896" y="356" width="244" height="118" rx="16" fill="#ffffff" stroke="#09090b" stroke-width="3" stroke-linejoin="round"/>
    <path d="M924 424c10-16 18-26 26-26 8 0 4 26 12 26 6 0 10-8 14-14M918 444h100" data-detail="signature" stroke="url(#accent)" stroke-width="5" fill="none" stroke-linecap="round"/>
    <g stroke="#09090b" stroke-width="3.5" fill="none" stroke-linecap="round" opacity="0.45"><use href="#w2" x="918" y="392"/></g>

    <g stroke="#09090b" stroke-width="4" fill="none" stroke-linecap="round">
        <path class="arrow" d="M482 315h44"/>
        <path class="arrow" d="M674 315h44"/>
    </g>
    <g fill="#09090b">
        <path d="M534 315l-16-10v20Z"/>
        <path d="M726 315l-16-10v20Z"/>
    </g>

    <rect x="546" y="261" width="108" height="108" rx="22" fill="#ffffff" stroke="#09090b" stroke-width="3" stroke-linejoin="round"/>
    <g class="act" transform="translate(570 285)">
        <g stroke="url(#accent)" fill="none" stroke-linecap="round">
            <circle cx="25" cy="25" r="19" stroke-width="6"/>
            <path d="M39 39l17 17" stroke-width="7"/>
        </g>
    </g>
</svg>
