<svg xmlns="http://www.w3.org/2000/svg" viewBox="0 0 1200 630" width="1200" height="630" role="img">
    <title>Statt eines Logos aus dem Screenshot gibt es die offiziellen Dateien in jeder Variante</title>
    <defs>
        <linearGradient id="accent" x1="0" y1="0" x2="1" y2="1">
            <stop offset="0" stop-color="#C026D3"/>
            <stop offset="1" stop-color="#2563EB"/>
        </linearGradient>
        <linearGradient id="wash" x1="0" y1="0" x2="0" y2="1">
            <stop offset="0" stop-color="#ffffff"/>
            <stop offset="1" stop-color="#f4eef8"/>
        </linearGradient>
        <filter id="glow" x="-100%" y="-100%" width="300%" height="300%">
            <feGaussianBlur stdDeviation="32"/>
        </filter>
        <pattern id="dots" width="18" height="18" patternUnits="userSpaceOnUse">
            <circle cx="2" cy="2" r="1.8" fill="#09090b"/>
        </pattern>

        <path id="w1" d="M0 0c3.5-6 7.5-6 11 0s7.5 6 11 0"/>
        <path id="w2" d="M0 0c3.5-6 7.5-6 11 0s7.5 6 11 0s7.5-6 11 0s7.5 6 11 0"/>
        <path id="w3" d="M0 0c3.5-6 7.5-6 11 0s7.5 6 11 0s7.5-6 11 0s7.5 6 11 0s7.5-6 11 0s7.5 6 11 0"/>
        <path id="w4" d="M0 0c3.5-6 7.5-6 11 0s7.5 6 11 0s7.5-6 11 0s7.5 6 11 0s7.5-6 11 0s7.5 6 11 0s7.5-6 11 0s7.5 6 11 0"/>
    </defs>

    <rect width="1200" height="630" fill="url(#wash)"/>
    <rect width="150" height="630" fill="url(#dots)" opacity="0.1"/>
    <rect x="1050" width="150" height="630" fill="url(#dots)" opacity="0.1"/>

    <ellipse cx="600" cy="315" rx="92" ry="116" fill="url(#accent)" filter="url(#glow)" opacity="0.55"/>

    <g transform="rotate(-4 270 315)">
    <rect x="124" y="208" width="300" height="228" rx="14" fill="#09090b" opacity="0.3"/>
    <rect x="112" y="196" width="300" height="228" rx="14" fill="#ffffff" stroke="#09090b" stroke-width="3" stroke-linejoin="round"/>
    <path d="M112 250h300" data-detail="browser chrome rule" stroke="#09090b" stroke-width="2.5" fill="none" opacity="0.5"/>
    <circle cx="140" cy="223" r="9" fill="#09090b" opacity="0.25"/>
    <circle cx="166" cy="223" r="9" fill="#09090b" opacity="0.25"/>
    <g opacity="0.45"><g fill="#09090b"><rect x="148" y="292" width="54" height="54" rx="16"/></g><path d="M163 325l11-13 11 13" stroke="#ffffff" stroke-width="6" fill="none" stroke-linecap="round" stroke-linejoin="round"/></g>
    <g stroke="#09090b" stroke-width="3.5" fill="none" stroke-linecap="round" opacity="0.45"><use href="#w2" x="224" y="318"/></g>
    <g stroke="#09090b" stroke-width="3" fill="none" stroke-linecap="round" opacity="0.45"><use href="#w1" x="224" y="348"/></g>
    </g>

    <rect x="764" y="162" width="186" height="132" rx="16" fill="#09090b" opacity="0.3"/>
    <rect x="752" y="150" width="186" height="132" rx="16" fill="#ffffff" stroke="#09090b" stroke-width="3" stroke-linejoin="round"/>
    <g fill="url(#accent)"><rect x="806" y="186" width="60" height="60" rx="18"/></g><path d="M823 223l12-14 12 14" stroke="#ffffff" stroke-width="7" fill="none" stroke-linecap="round" stroke-linejoin="round"/>
    <rect x="968" y="162" width="186" height="132" rx="16" fill="#09090b" opacity="0.3"/>
    <rect x="956" y="150" width="186" height="132" rx="16" fill="#ffffff" stroke="#09090b" stroke-width="3" stroke-linejoin="round"/>
    <g fill="#09090b"><rect x="1010" y="186" width="60" height="60" rx="18"/></g><path d="M1027 223l12-14 12 14" stroke="#ffffff" stroke-width="7" fill="none" stroke-linecap="round" stroke-linejoin="round"/>
    <rect x="764" y="310" width="186" height="132" rx="16" fill="#09090b" opacity="0.3"/>
    <rect x="752" y="298" width="186" height="132" rx="16" fill="#09090b"/>
    <g fill="url(#accent)"><rect x="806" y="334" width="60" height="60" rx="18"/></g><path d="M823 371l12-14 12 14" stroke="#ffffff" stroke-width="7" fill="none" stroke-linecap="round" stroke-linejoin="round"/>
    <rect x="968" y="310" width="186" height="132" rx="16" fill="#09090b" opacity="0.3"/>
    <rect x="956" y="298" width="186" height="132" rx="16" fill="#09090b"/>
    <g fill="#ffffff"><rect x="1010" y="334" width="60" height="60" rx="18"/></g><path d="M1027 371l12-14 12 14" stroke="#09090b" stroke-width="7" fill="none" stroke-linecap="round" stroke-linejoin="round"/>
    <rect x="752" y="452" width="88" height="26" rx="13" fill="#500472" opacity="0.18"/>
    <rect x="856" y="452" width="88" height="26" rx="13" fill="#500472" opacity="0.18"/>

    <g stroke="#09090b" stroke-width="4" fill="none" stroke-linecap="round">
        <path class="arrow" d="M482 315h44"/>
        <path class="arrow" d="M674 315h44"/>
    </g>
    <g fill="#09090b">
        <path d="M534 315l-16-10v20Z"/>
        <path d="M726 315l-16-10v20Z"/>
    </g>

    <rect x="546" y="261" width="108" height="108" rx="22" fill="#ffffff" stroke="#09090b" stroke-width="3" stroke-linejoin="round"/>
    <g class="act" transform="translate(570 285)">
        <path d="M30 4v22M6 38v12a4 4 0 0 0 4 4h40a4 4 0 0 0 4-4V38" stroke="url(#accent)" stroke-width="6" fill="none" stroke-linecap="round" stroke-linejoin="round"/>
        <path d="M30 42 11 22h38Z" fill="url(#accent)"/>
    </g>
</svg>
