<svg xmlns="http://www.w3.org/2000/svg" viewBox="0 0 1200 630" width="1200" height="630" role="img">
    <title>Aus einer ersten Skizze wird Software, die täglich im Einsatz ist</title>
    <defs>
        <linearGradient id="accent" x1="0" y1="0" x2="1" y2="1">
            <stop offset="0" stop-color="#C026D3"/>
            <stop offset="1" stop-color="#2563EB"/>
        </linearGradient>
        <linearGradient id="wash" x1="0" y1="0" x2="0" y2="1">
            <stop offset="0" stop-color="#ffffff"/>
            <stop offset="1" stop-color="#f4eef8"/>
        </linearGradient>
        <filter id="glow" x="-100%" y="-100%" width="300%" height="300%">
            <feGaussianBlur stdDeviation="32"/>
        </filter>
        <pattern id="dots" width="18" height="18" patternUnits="userSpaceOnUse">
            <circle cx="2" cy="2" r="1.8" fill="#09090b"/>
        </pattern>

        <path id="w1" d="M0 0c3.5-6 7.5-6 11 0s7.5 6 11 0"/>
        <path id="w2" d="M0 0c3.5-6 7.5-6 11 0s7.5 6 11 0s7.5-6 11 0s7.5 6 11 0"/>
        <path id="w3" d="M0 0c3.5-6 7.5-6 11 0s7.5 6 11 0s7.5-6 11 0s7.5 6 11 0s7.5-6 11 0s7.5 6 11 0"/>
        <path id="w4" d="M0 0c3.5-6 7.5-6 11 0s7.5 6 11 0s7.5-6 11 0s7.5 6 11 0s7.5-6 11 0s7.5 6 11 0s7.5-6 11 0s7.5 6 11 0"/>
    </defs>

    <rect width="1200" height="630" fill="url(#wash)"/>
    <rect width="150" height="630" fill="url(#dots)" opacity="0.1"/>
    <rect x="1050" width="150" height="630" fill="url(#dots)" opacity="0.1"/>

    <ellipse cx="600" cy="315" rx="92" ry="116" fill="url(#accent)" filter="url(#glow)" opacity="0.55"/>

    <g transform="rotate(-4 270 315)">
    <rect x="122" y="132" width="250" height="330" rx="20" fill="#ffffff" stroke="#09090b" stroke-width="3" stroke-linejoin="round"/>
    <rect x="112" y="162" width="250" height="330" rx="20" fill="#09090b" opacity="0.3"/>
    <rect x="100" y="150" width="250" height="330" rx="20" fill="#ffffff" stroke="#09090b" stroke-width="3" stroke-linejoin="round"/>
    <rect x="128" y="194" width="194" height="84" rx="10" fill="none" stroke="#09090b" stroke-width="2.5" opacity="0.45"/>
    <path d="M128 194 322 278M322 194 128 278" data-detail="sketch placeholder" stroke="#09090b" stroke-width="2.5" fill="none" opacity="0.3"/>
    <g stroke="#09090b" stroke-width="4.5" fill="none" stroke-linecap="round"><use href="#w3" x="128" y="318"/><use href="#w2" x="208" y="318"/><use href="#w2" x="128" y="354"/><use href="#w3" x="186" y="354"/><use href="#w1" x="128" y="390"/></g>
    </g>

    <rect x="764" y="162" width="360" height="300" rx="22" fill="#09090b" opacity="0.3"/>
    <rect x="752" y="150" width="360" height="300" rx="22" fill="#ffffff" stroke="#09090b" stroke-width="3" stroke-linejoin="round"/>
    <path d="M752 212h360" data-detail="panel header rule" stroke="#09090b" stroke-width="2.5" fill="none" opacity="0.5"/>
    <rect x="776" y="168" width="30" height="30" rx="8" fill="url(#accent)"/>
    <g stroke="#09090b" stroke-width="3.5" fill="none" stroke-linecap="round" opacity="0.45"><use href="#w2" x="822" y="190"/></g>
    <g stroke="#09090b" stroke-width="4.5" fill="none" stroke-linecap="round"><use href="#w3" x="776" y="258"/><use href="#w2" x="856" y="258"/><use href="#w2" x="776" y="300"/><use href="#w3" x="834" y="300"/></g>
    <rect x="776" y="344" width="300" height="14" rx="7" fill="#09090b" opacity="0.12"/>
    <rect x="776" y="344" width="186" height="14" rx="7" fill="url(#accent)"/>
    <rect x="998" y="384" width="170" height="104" rx="16" fill="#09090b" opacity="0.3"/>
    <rect x="986" y="372" width="170" height="104" rx="16" fill="#ffffff" stroke="#09090b" stroke-width="3" stroke-linejoin="round"/>
    <circle cx="1024" cy="412" r="19" fill="url(#accent)"/>
    <g stroke="#09090b" stroke-width="3.5" fill="none" stroke-linecap="round"><use href="#w2" x="1054" y="404"/></g>
    <g stroke="#09090b" stroke-width="3" fill="none" stroke-linecap="round" opacity="0.45"><use href="#w1" x="1054" y="432"/></g>

    <g stroke="#09090b" stroke-width="4" fill="none" stroke-linecap="round">
        <path class="arrow" d="M482 315h44"/>
        <path class="arrow" d="M674 315h44"/>
    </g>
    <g fill="#09090b">
        <path d="M534 315l-16-10v20Z"/>
        <path d="M726 315l-16-10v20Z"/>
    </g>

    <rect x="546" y="261" width="108" height="108" rx="22" fill="#ffffff" stroke="#09090b" stroke-width="3" stroke-linejoin="round"/>
    <g class="act" transform="translate(570 285)">
        <path d="M8 4h26a6 6 0 0 1 6 6v16a6 6 0 0 1-6 6H20l-10 8v-8H8a6 6 0 0 1-6-6V10a6 6 0 0 1 6-6Z" fill="url(#accent)"/>
        <path d="M32 28h20a6 6 0 0 1 6 6v12a6 6 0 0 1-6 6h-4l-8 6v-6h-8a6 6 0 0 1-6-6V34a6 6 0 0 1 6-6Z" stroke="url(#accent)" stroke-width="5" fill="none" stroke-linejoin="round"/>
    </g>
</svg>
