<?xml version="1.0" encoding="UTF-8"?>
<svg xmlns="http://www.w3.org/2000/svg" width="1200" height="630" viewBox="0 0 1200 630" fill="none">
    <defs>

        <linearGradient id="brand-strip" gradientUnits="userSpaceOnUse" x1="0" y1="0" x2="1200" y2="0">
            <stop offset="0%" stop-color="#C026D3"/>
            <stop offset="50%" stop-color="#500472"/>
            <stop offset="100%" stop-color="#2563EB"/>
        </linearGradient>
        <linearGradient id="brand-strip-soft" gradientUnits="userSpaceOnUse" x1="0" y1="0" x2="1200" y2="0">
            <stop offset="0%" stop-color="#C026D3" stop-opacity="0.35"/>
            <stop offset="50%" stop-color="#500472" stop-opacity="0.35"/>
            <stop offset="100%" stop-color="#2563EB" stop-opacity="0.35"/>
        </linearGradient>
        <linearGradient id="codebar-logo-inverted-bg" gradientUnits="userSpaceOnUse" x1="-24" y1="0" x2="635" y2="0">
            <stop offset="0%" stop-color="rgb(192,38,211)" stop-opacity="0.45"/>
            <stop offset="50%" stop-color="rgb(80,4,114)" stop-opacity="0.45"/>
            <stop offset="100%" stop-color="rgb(37,99,235)" stop-opacity="0.40"/>
        </linearGradient>
        <filter id="blur-soft" x="-30%" y="-30%" width="160%" height="160%">
            <feGaussianBlur stdDeviation="36"/>
        </filter>
        <filter id="blur-heavy" x="-40%" y="-40%" width="180%" height="180%">
            <feGaussianBlur stdDeviation="56"/>
        </filter>
        <filter id="paper-noise" x="0" y="0" width="100%" height="100%">
            <feTurbulence type="fractalNoise" baseFrequency="0.75" numOctaves="4" seed="4" result="noise"/>
            <feColorMatrix in="noise" type="matrix"
                values="0 0 0 0 0.5
                        0 0 0 0 0.5
                        0 0 0 0 0.5
                        0 0 0 0.04 0"/>
        </filter>
        <filter id="card-shadow" x="-20%" y="-20%" width="140%" height="140%">
            <feDropShadow dx="0" dy="8" stdDeviation="16" flood-color="#500472" flood-opacity="0.08"/>
            <feDropShadow dx="0" dy="2" stdDeviation="4" flood-color="#09090b" flood-opacity="0.06"/>
        </filter>
        <clipPath id="top-slice"><rect x="0" y="0" width="1200" height="210"/></clipPath>


        <linearGradient id="edge-fade" gradientUnits="userSpaceOnUse" x1="420" y1="0" x2="480" y2="0">
            <stop offset="0%" stop-color="#500472" stop-opacity="0.35"/>
            <stop offset="100%" stop-color="#500472" stop-opacity="0"/>
        </linearGradient>
        <radialGradient id="spot-vignette" cx="600" cy="315" r="680" gradientUnits="userSpaceOnUse">
            <stop offset="50%" stop-color="#000000" stop-opacity="0"/>
            <stop offset="100%" stop-color="#000000" stop-opacity="0.55"/>
        </radialGradient>
        <pattern id="dither-pattern" width="8" height="8" patternUnits="userSpaceOnUse">
            <rect width="8" height="8" fill="#FFFFFF"/>
            <circle cx="2" cy="2" r="1.2" fill="#E29DEB" opacity="0.35"/>
            <circle cx="6" cy="6" r="1.2" fill="#A8C0F6" opacity="0.35"/>
        </pattern>
        <radialGradient id="mesh-a" cx="0" cy="0" r="1" gradientUnits="userSpaceOnUse" gradientTransform="translate(200 100) scale(500)">
            <stop offset="0%" stop-color="#E29DEB" stop-opacity="0.35"/>
            <stop offset="100%" stop-color="#E29DEB" stop-opacity="0"/>
        </radialGradient>
        <radialGradient id="mesh-b" cx="0" cy="0" r="1" gradientUnits="userSpaceOnUse" gradientTransform="translate(600 400) scale(450)">
            <stop offset="0%" stop-color="#500472" stop-opacity="0.2"/>
            <stop offset="100%" stop-color="#500472" stop-opacity="0"/>
        </radialGradient>
        <radialGradient id="mesh-c" cx="0" cy="0" r="1" gradientUnits="userSpaceOnUse" gradientTransform="translate(1050 520) scale(520)">
            <stop offset="0%" stop-color="#A8C0F6" stop-opacity="0.4"/>
            <stop offset="100%" stop-color="#A8C0F6" stop-opacity="0"/>
        </radialGradient>
        <linearGradient id="mesh-bg" x1="0" y1="0" x2="1200" y2="630" gradientUnits="userSpaceOnUse">
            <stop offset="0%" stop-color="#FDF8FE"/>
            <stop offset="100%" stop-color="#F0F4FE"/>
        </linearGradient>
        <linearGradient id="sky-wash" x1="600" y1="0" x2="600" y2="630" gradientUnits="userSpaceOnUse">
            <stop offset="0%" stop-color="#FDF8FE"/>
            <stop offset="70%" stop-color="#F5F7FE"/>
            <stop offset="100%" stop-color="#EEF3FE"/>
        </linearGradient>


    </defs>

    <rect width="1200" height="630" fill="#FEFEFE"/>
    <rect width="1200" height="630" filter="url(#paper-noise)"/>

    <g transform="translate(600 315) scale(1.28) translate(-299.5 58)">
        <g transform="translate(299.5 58) skewX(-3) translate(-299.5 -58)">
            <rect x="-28" y="12" width="655" height="96" rx="6" fill="#09090b"/>
            <rect x="-23.96" y="16.24" width="647.92" height="83.52" fill="url(#codebar-logo-inverted-bg)" style="mix-blend-mode: screen"/>
        </g>
        <path fill="#ffffff" d="M42.025 115.575C17.7 115.575 0.9 98.075 0.9 73.75C0.9 49.425 17.7 32.1 42.025 32.1C56.2 32.1 67.75 38.4 74.75 48.375L59.175 60.45C56.375 57.125 51.475 52.75 42.55 52.75C30.475 52.75 22.25 61.675 22.25 73.75C22.25 85.825 30.475 94.75 42.55 94.75C51.475 94.75 56.2 91.075 59.175 87.4L74.75 99.125C67.75 109.275 56.2 115.575 42.025 115.575ZM121.74 115.75C97.4152 115.75 80.2652 97.725 80.2652 73.75C80.2652 49.425 97.4152 31.925 121.74 31.925C146.24 31.925 163.215 49.425 163.215 73.75C163.215 97.725 146.24 115.75 121.74 115.75ZM121.74 94.75C133.815 94.75 141.69 85.825 141.69 73.75C141.69 61.675 133.815 52.75 121.74 52.75C109.84 52.75 101.79 61.675 101.79 73.75C101.79 85.825 109.84 94.75 121.74 94.75ZM210.256 115.4C188.206 115.4 172.106 97.725 172.106 73.75C172.106 49.425 188.206 32.275 210.256 32.275C220.406 32.275 227.931 35.95 233.356 42.075V0.249994H255.231V114H233.356V105.6C227.931 111.725 220.406 115.4 210.256 115.4ZM213.406 94.75C225.481 94.75 233.356 85.825 233.356 73.75C233.356 61.675 225.481 52.75 213.406 52.75C201.331 52.75 193.281 61.675 193.281 73.75C193.281 85.825 201.331 94.75 213.406 94.75ZM308.144 115.75C283.469 115.75 267.194 97.725 267.194 73.75C267.194 49.775 282.944 31.925 307.269 31.925C331.244 31.925 345.944 49.775 345.944 73.75V79.7H288.194C290.294 90.55 298.169 97.025 308.144 97.025C318.819 97.025 324.419 92.125 327.219 88.45L342.094 99.3C335.094 109.45 322.844 115.75 308.144 115.75ZM288.544 65.875H325.469C323.544 56.425 317.594 49.25 307.269 49.25C297.294 49.25 290.644 55.725 288.544 65.875ZM402.883 115.4C392.733 115.4 385.208 111.725 379.783 105.6V114H357.908V0.249994H379.783V42.075C385.208 35.95 392.733 32.275 402.883 32.275C424.933 32.275 441.033 49.425 441.033 73.75C441.033 97.725 424.933 115.4 402.883 115.4ZM399.733 94.75C411.808 94.75 419.858 85.825 419.858 73.75C419.858 61.675 411.808 52.75 399.733 52.75C387.658 52.75 379.783 61.675 379.783 73.75C379.783 85.825 387.658 94.75 399.733 94.75ZM488.171 115.4C466.121 115.4 450.021 97.725 450.021 73.75C450.021 49.425 466.121 32.275 488.171 32.275C498.321 32.275 505.846 35.95 511.271 42.075V33.5H533.146V114H511.271V105.6C505.846 111.725 498.321 115.4 488.171 115.4ZM491.321 94.75C503.396 94.75 511.271 85.825 511.271 73.75C511.271 61.675 503.396 52.75 491.321 52.75C479.246 52.75 471.196 61.675 471.196 73.75C471.196 85.825 479.246 94.75 491.321 94.75ZM548.084 114V33.5H569.959V48.025C576.784 37 587.634 32.45 598.309 32.275V52.75C590.434 52.925 569.959 54.15 569.959 77.075V114H548.084Z"/>
    </g>
</svg>
