<svg xmlns="http://www.w3.org/2000/svg" viewBox="0 0 640 640" width="640" height="640" role="img" aria-hidden="true">
    <!-- Generated by scripts/make-news-square.py — edit that, not this file. -->
    <defs>
        <linearGradient id="wash" x1="0" y1="0" x2="1" y2="1">
            <stop offset="0" stop-color="#ffffff"/>
            <stop offset="1" stop-color="#f4eef8"/>
        </linearGradient>

        <pattern id="dots" width="26" height="26" patternUnits="userSpaceOnUse">
            <circle cx="3" cy="3" r="3" fill="#500472" opacity="0.14"/>
        </pattern>

        <radialGradient id="dot-fade" gradientUnits="userSpaceOnUse" cx="8" cy="668" r="200">
            <stop offset="0" stop-color="#ffffff"/>
            <stop offset="1" stop-color="#000000"/>
        </radialGradient>

        <mask id="dot-mask">
            <rect x="-16" y="427" width="224" height="256" fill="url(#dot-fade)"/>
        </mask>
    </defs>

    <rect width="640" height="640" fill="url(#wash)"/>

    <!-- dot field, bottom left, masked to a radial fade so its rectangle has no edge -->
    <rect x="-16" y="427" width="224" height="256" fill="url(#dots)" opacity="0.6"
          mask="url(#dot-mask)"/>

    <!-- concentric rings, anchored bottom-left so only arcs show -->
    <g fill="none" stroke="#500472">
        <circle cx="60" cy="626" r="216" stroke-width="2" opacity="0.10"/>
        <circle cx="60" cy="626" r="160" stroke-width="2" opacity="0.14"/>
        <circle cx="60" cy="626" r="105" stroke-width="2" opacity="0.18"/>
        <circle cx="60" cy="626" r="52" stroke-width="2" opacity="0.10"/>
    </g>

    <!-- diagonal band, passing behind the motif -->
    <rect x="360" y="-100" width="60" height="840" rx="30" fill="#500472" opacity="0.05"
          transform="rotate(22 360 320)"/>

    <!-- motif: workflow-browser -->
    <g transform="translate(80 80) rotate(-4 240 240)">
        <!-- the browser frame -->
        <rect x="30" y="66" width="420" height="348" rx="22" fill="#ffffff"
              stroke="#500472" stroke-opacity="0.35" stroke-width="3"/>
        <circle cx="66" cy="100" r="8" fill="#500472" opacity="0.25"/>
        <circle cx="94" cy="100" r="8" fill="#500472" opacity="0.25"/>
        <circle cx="122" cy="100" r="8" fill="#500472" opacity="0.25"/>
        <rect x="30" y="128" width="420" height="3" fill="#500472" opacity="0.14"/>

        <!-- three steps and the path between them -->
        <g>
            <path d="M196 191 H278" fill="none" stroke="#500472" stroke-opacity="0.45"
                  stroke-width="4" stroke-linecap="round"/>
        <path d="M288 191 l-16 -10 v20 z" fill="#500472" opacity="0.45"/>
            <path d="M354 222 V262 H244 V292" fill="none" stroke="#500472" stroke-opacity="0.45"
                  stroke-width="4" stroke-linecap="round" stroke-linejoin="round"/>
            <path d="M244 302 l-10 -16 h20 z" fill="#500472" opacity="0.45"/>
        </g>

        <g>
            <rect x="56" y="160" width="140" height="62" rx="18" fill="#ffffff"
                  stroke="#500472" stroke-opacity="0.30" stroke-width="3"/>
            <rect x="80" y="186" width="76" height="10" rx="5" fill="#500472" opacity="0.30"/>

            <rect x="288" y="160" width="140" height="62" rx="18" fill="#ffffff"
                  stroke="#500472" stroke-opacity="0.30" stroke-width="3"/>
            <rect x="312" y="186" width="76" height="10" rx="5" fill="#500472" opacity="0.30"/>

            <rect x="174" y="302" width="140" height="62" rx="18" fill="#ffffff"
                  stroke="#500472" stroke-opacity="0.45" stroke-width="3"/>
            <rect x="198" y="328" width="60" height="10" rx="5" fill="#500472" opacity="0.55"/>
            <circle cx="288" cy="333" r="14" fill="#500472" opacity="0.85"/>
            <path d="M281 333l5 5 9 -10" fill="none" stroke="#ffffff" stroke-width="4"
                  stroke-linecap="round" stroke-linejoin="round"/>
        </g>
    </g>
</svg>
