<svg xmlns="http://www.w3.org/2000/svg" viewBox="-10 -10 344 344" width="344" height="344" fill="none" role="img" aria-hidden="true">
    <defs>
        <linearGradient id="accent" x1="0" y1="0" x2="1" y2="1">
            <stop offset="0" stop-color="#C026D3"/>
            <stop offset="1" stop-color="#2563EB"/>
        </linearGradient>

        <path id="s1" d="M0 0c1.75-3 3.75-3 5.5 0s3.75 3 5.5 0"/>
        <path id="s2" d="M0 0c1.75-3 3.75-3 5.5 0s3.75 3 5.5 0s3.75-3 5.5 0s3.75 3 5.5 0"/>
        <path id="s3" d="M0 0c1.75-3 3.75-3 5.5 0s3.75 3 5.5 0s3.75-3 5.5 0s3.75 3 5.5 0s3.75-3 5.5 0s3.75 3 5.5 0"/>
        <path id="page" d="M7 0h93l30 28v66a7 7 0 0 1-7 7H7a7 7 0 0 1-7-7V7a7 7 0 0 1 7-7Z"/>
    </defs>

    <g stroke="#09090b" stroke-width="1.8" stroke-linejoin="round">
        <rect x="30" y="12" width="130" height="101" rx="7" fill="#ffffff"/>
        <rect x="23" y="18" width="130" height="101" rx="7" fill="#ffffff"/>
        <use href="#page" x="24" y="34" fill="#09090b" stroke="none" opacity="0.3"/>
        <use href="#page" x="16" y="26" fill="#ffffff"/>
        <path d="M116 26l30 28h-23a7 7 0 0 1-7-7Z" fill="#ffffff"/>
    </g>
    <g stroke="#09090b" stroke-width="2.2" stroke-linecap="round" fill="none">
        <use href="#s2" x="28" y="66"/><use href="#s1" x="56" y="66"/>
        <use href="#s3" x="28" y="82"/><use href="#s1" x="66" y="82"/>
        <use href="#s2" x="28" y="98"/><use href="#s2" x="56" y="98"/>
        <use href="#s3" x="28" y="114"/>
    </g>

    <g stroke="url(#accent)" fill="none" stroke-linecap="round">
        <circle cx="248" cy="52" r="24" stroke-width="5"/>
        <path d="M266 70l17 17" stroke-width="6.5"/>
    </g>

    <g stroke="#09090b" stroke-width="2.2" fill="#09090b">
        <path d="M158 140v14" stroke-linecap="round"/>
        <path d="M158 166l-9-14h18Z" stroke="none"/>
    </g>

    <g stroke="#09090b" stroke-width="1.8" stroke-linejoin="round">
        <rect x="65" y="183" width="200" height="34" rx="10" fill="#09090b" stroke="none" opacity="0.3"/>
        <rect x="58" y="176" width="200" height="34" rx="10" fill="#ffffff"/>
        <rect x="65" y="231" width="200" height="34" rx="10" fill="#09090b" stroke="none" opacity="0.3"/>
        <rect x="58" y="224" width="200" height="34" rx="10" fill="#ffffff"/>
        <rect x="65" y="279" width="200" height="34" rx="10" fill="#09090b" stroke="none" opacity="0.3"/>
        <rect x="58" y="272" width="200" height="34" rx="10" fill="#ffffff"/>
    </g>

    <g stroke="#09090b" stroke-width="1.5" stroke-linejoin="round">
        <path d="M72 182h11l7 7v16a3 3 0 0 1-3 3H72a3 3 0 0 1-3-3v-20a3 3 0 0 1 3-3Z" fill="#ffffff"/>
        <rect x="70" y="278" width="22" height="24" rx="4" fill="#ffffff"/>
        <path d="M70 292h22"/>
        <rect x="76" y="284" width="10" height="4" rx="2" fill="#ffffff"/>
        <rect x="76" y="295" width="10" height="4" rx="2" fill="#ffffff"/>
    </g>

    <g stroke="#09090b" stroke-width="2.2" stroke-linecap="round" fill="none">
        <use href="#s3" x="102" y="196"/>
        <use href="#s3" x="72" y="244"/><use href="#s1" x="112" y="244"/>
        <use href="#s2" x="102" y="292"/><use href="#s1" x="130" y="292"/>
    </g>

    <rect x="196" y="185" width="48" height="16" rx="8" fill="#500472" opacity="0.12"/>
    <use href="#s2" x="206" y="195" stroke="#500472" stroke-width="2" stroke-linecap="round" fill="none" opacity="0.6"/>

    <circle cx="228" cy="241" r="12" fill="url(#accent)"/>
    <path d="M222 241l4 4 8-9" stroke="#ffffff" stroke-width="2.4" stroke-linecap="round" stroke-linejoin="round" fill="none"/>

    <rect x="196" y="281" width="48" height="16" rx="8" fill="url(#accent)" opacity="0.2"/>
    <use href="#s2" x="206" y="291" stroke="#500472" stroke-width="2" stroke-linecap="round" fill="none" opacity="0.6"/>
</svg>
