<svg xmlns="http://www.w3.org/2000/svg" viewBox="0 0 1600 840" width="1600" height="840" fill="none" role="img" aria-labelledby="title-software">
    <title id="title-software">Getrennte Systeme werden über Schnittstellen und eigenen Code zu einem Ganzen verbunden</title>

    <defs>
        <linearGradient id="accent" x1="0" y1="0" x2="1" y2="1">
            <stop offset="0" stop-color="#C026D3"/>
            <stop offset="1" stop-color="#2563EB"/>
        </linearGradient>
        <linearGradient id="wash" x1="0" y1="0" x2="0" y2="1">
            <stop offset="0" stop-color="#ffffff"/>
            <stop offset="1" stop-color="#f4eef8"/>
        </linearGradient>
        <filter id="glow" x="-100%" y="-100%" width="300%" height="300%">
            <feGaussianBlur stdDeviation="42"/>
        </filter>
        <pattern id="dots" width="18" height="18" patternUnits="userSpaceOnUse">
            <circle cx="2" cy="2" r="1.8" fill="#09090b"/>
        </pattern>

        <path id="w1" d="M0 0c3.5-6 7.5-6 11 0s7.5 6 11 0"/>
        <path id="w2" d="M0 0c3.5-6 7.5-6 11 0s7.5 6 11 0s7.5-6 11 0s7.5 6 11 0"/>
        <path id="w3" d="M0 0c3.5-6 7.5-6 11 0s7.5 6 11 0s7.5-6 11 0s7.5 6 11 0s7.5-6 11 0s7.5 6 11 0"/>
    </defs>

    <rect width="1600" height="840" fill="url(#wash)"/>
    <rect x="0" y="0" width="300" height="840" fill="url(#dots)" opacity="0.1"/>
    <rect x="1300" y="0" width="300" height="840" fill="url(#dots)" opacity="0.1"/>

    <g transform="rotate(-4 266 412)">
        <path d="M130 200v110a100 26 0 0 0 200 0V200a100 26 0 0 0-200 0Z" fill="#09090b" opacity="0.3" transform="translate(12 12)"/>
        <path d="M130 200v110a100 26 0 0 0 200 0V200" fill="#ffffff" stroke="#09090b" stroke-width="3"/>
        <ellipse cx="230" cy="200" rx="100" ry="26" fill="#ffffff" stroke="#09090b" stroke-width="3"/>
        <g stroke="#09090b" stroke-width="2.5" opacity="0.4" fill="none">
            <path d="M130 244a100 26 0 0 0 200 0M130 282a100 26 0 0 0 200 0" data-detail="cylinder fill lines"/>
        </g>

        <rect x="152" y="412" width="190" height="110" rx="14" fill="#09090b" opacity="0.3"/>
        <rect x="140" y="400" width="190" height="110" rx="14" fill="#ffffff" stroke="#09090b" stroke-width="3"/>
        <rect x="162" y="424" width="30" height="30" rx="8" fill="#09090b" opacity="0.14"/>
        <g stroke="#09090b" stroke-width="4" stroke-linecap="round" fill="none">
            <use href="#w2" x="206" y="444"/>
            <use href="#w3" x="162" y="484" opacity="0.5"/><use href="#w1" x="242" y="484" opacity="0.5"/>
        </g>

        <rect x="152" y="552" width="190" height="110" rx="14" fill="#09090b" opacity="0.3"/>
        <rect x="140" y="540" width="190" height="110" rx="14" fill="#ffffff" stroke="#09090b" stroke-width="3"/>
        <g stroke="#09090b" stroke-width="2.5" opacity="0.45" fill="none">
            <path d="M140 572h190M140 604h190M204 572v78M266 572v78" data-detail="spreadsheet rules"/>
        </g>
        <use href="#w2" x="162" y="562" stroke="#09090b" stroke-width="4" stroke-linecap="round" fill="none"/>

        <g stroke="#09090b" stroke-width="3" opacity="0.5" fill="none">
            <path d="M330 255h52M330 455h52M330 595h52" class="connector"/>
        </g>
        <g fill="#ffffff" stroke="#09090b" stroke-width="3" opacity="0.5">
            <circle cx="392" cy="255" r="10"/><circle cx="392" cy="455" r="10"/><circle cx="392" cy="595" r="10"/>
        </g>
    </g>

    <ellipse cx="780" cy="428" rx="118" ry="146" fill="url(#accent)" filter="url(#glow)" opacity="0.55"/>

    <g stroke="#09090b" stroke-width="4" fill="#09090b">
        <path d="M600 428h72" stroke-linecap="round"/>
        <path d="M690 428l-20-12v24Z" stroke="none"/>
        <path d="M850 428h72" stroke-linecap="round"/>
        <path d="M940 428l-20-12v24Z" stroke="none"/>
    </g>

    <rect x="714" y="374" width="124" height="124" rx="26" fill="#09090b" opacity="0.3"/>
    <rect x="706" y="366" width="124" height="124" rx="26" fill="#ffffff" stroke="#09090b" stroke-width="3"/>
    <g class="act" stroke="url(#accent)" stroke-width="7" stroke-linecap="round" stroke-linejoin="round" fill="none">
        <path d="M756 394c-14 0-14 26-22 34 8 8 8 34 22 34M780 394c14 0 14 26 22 34-8 8-8 34-22 34"/>
    </g>

    <rect x="996" y="166" width="460" height="330" rx="18" fill="#09090b" opacity="0.3"/>
    <rect x="974" y="144" width="472" height="342" rx="22" stroke="url(#accent)" stroke-width="3"/>
    <rect x="980" y="150" width="460" height="330" rx="18" fill="#ffffff" stroke="#09090b" stroke-width="3"/>

    <path d="M980 216h460M1046 216v264" data-detail="panel header rule and gutter" stroke="#09090b" stroke-width="3"/>
    <rect x="1010" y="169" width="34" height="34" rx="9" fill="url(#accent)"/>
    <use href="#w3" x="1068" y="190" stroke="#09090b" stroke-width="5" stroke-linecap="round" fill="none"/>

    <g fill="#09090b" opacity="0.22">
        <rect x="1014" y="248" width="18" height="8" rx="4"/><rect x="1014" y="282" width="18" height="8" rx="4"/>
        <rect x="1014" y="316" width="18" height="8" rx="4"/><rect x="1014" y="350" width="18" height="8" rx="4"/>
        <rect x="1014" y="384" width="18" height="8" rx="4"/><rect x="1014" y="418" width="18" height="8" rx="4"/>
        <rect x="1014" y="452" width="18" height="8" rx="4"/>
    </g>

    <g opacity="0.75">
        <g fill="#C026D3">
            <rect x="1074" y="246" width="58" height="12" rx="6"/>
            <rect x="1098" y="314" width="46" height="12" rx="6"/>
            <rect x="1074" y="416" width="64" height="12" rx="6"/>
        </g>
        <g fill="#2563EB">
            <rect x="1142" y="246" width="86" height="12" rx="6"/>
            <rect x="1154" y="314" width="70" height="12" rx="6"/>
            <rect x="1098" y="382" width="94" height="12" rx="6"/>
            <rect x="1148" y="416" width="78" height="12" rx="6"/>
        </g>
        <g fill="#09090b" opacity="0.55">
            <rect x="1238" y="246" width="42" height="12" rx="6"/>
            <rect x="1098" y="280" width="120" height="12" rx="6"/>
            <rect x="1228" y="280" width="54" height="12" rx="6"/>
            <rect x="1234" y="314" width="96" height="12" rx="6"/>
            <rect x="1122" y="348" width="110" height="12" rx="6"/>
            <rect x="1202" y="382" width="64" height="12" rx="6"/>
            <rect x="1236" y="416" width="52" height="12" rx="6"/>
            <rect x="1074" y="450" width="40" height="12" rx="6"/>
        </g>
    </g>

    <rect x="1076" y="546" width="380" height="212" rx="16" fill="#09090b" opacity="0.3"/>
    <rect x="1060" y="530" width="380" height="212" rx="16" fill="#ffffff" stroke="#09090b" stroke-width="3"/>
    <path d="M1060 584h380" data-detail="panel header rule" stroke="#09090b" stroke-width="3"/>

    <g stroke="url(#accent)" stroke-width="4" stroke-linecap="round" fill="none">
        <path d="M1086 550a15 15 0 0 1 24 3M1110 570a15 15 0 0 1-24-3"/>
    </g>
    <g fill="url(#accent)">
        <path d="M1084 542l12 4-10 7Z"/><path d="M1112 581l-12-4 10-7Z"/>
    </g>
    <use href="#w2" x="1130" y="564" stroke="#09090b" stroke-width="4.5" stroke-linecap="round" fill="none"/>

    <g stroke="#09090b" stroke-width="2.5" stroke-linejoin="round">
        <path d="M1084 608v34a24 10 0 0 0 48 0v-34" fill="#ffffff"/>
        <ellipse cx="1108" cy="608" rx="24" ry="10" fill="#ffffff"/>
        <rect x="1084" y="666" width="48" height="26" rx="7" fill="#ffffff"/>
        <rect x="1084" y="704" width="48" height="26" rx="7" fill="#ffffff"/>
    </g>
    <g stroke="#09090b" stroke-width="4" stroke-linecap="round" fill="none" opacity="0.55">
        <use href="#w2" x="1150" y="626"/><use href="#w2" x="1150" y="682"/><use href="#w1" x="1150" y="720"/>
    </g>
    <g stroke="url(#accent)" stroke-width="4" fill="none">
        <path d="M1216 626h154M1216 682h154M1216 720h154M1370 626v94" class="connector"/>
    </g>
    <g fill="url(#accent)">
        <circle cx="1370" cy="626" r="7"/><circle cx="1370" cy="720" r="7"/>
        <circle cx="1370" cy="682" r="16"/>
    </g>
</svg>
